<?xml version="1.0" encoding="UTF-8"?>
<svg id="Layer_2" data-name="Layer 2" xmlns="http://www.w3.org/2000/svg" viewBox="0 0 102.77 102.83">
  <defs>
    <style>
      .cls-1 {
        fill: none;
        stroke: #fff;
        stroke-miterlimit: 10;
      }
    </style>
  </defs>
  <g id="Layer_1-2" data-name="Layer 1">
    <path class="cls-1" d="m102.27,76.83c-1.61,2.98-4.2,4.96-6.99,6.71-2.77,1.74-5.8,2.88-9,3.53-3.36.68-6.76.84-10.18.46-3.96-.44-7.65-1.69-11.04-3.79-2.23-1.38-4.21-3.07-5.81-5.16-.36-.47-.63-1.01-.9-1.53-.19-.37-.12-.56.26-.76.37-.19.76-.34,1.16-.46.44-.14.9-.25,1.36-.34.22-.04.31-.15.38-.34,1.13-3.19,2.28-6.38,3.39-9.57,3.86-11.03,7.7-22.07,11.55-33.1.03-.08.06-.17.09-.27-.23-.06-.45-.1-.67-.17-.73-.24-1.09-1.24-.69-1.89.05-.09.18-.17.28-.17.34-.03.67.02.95.25.13.1.32.26.43.22.28-.09.58-.23.65-.56.1-.46.22-.94.23-1.41.06-1.66.08-3.32.11-4.98,0-.29.02-.58.04-.86.02-.27.17-.43.46-.45.29-.02.58-.05.88-.15-.05-.02-.09-.05-.14-.07-1.07-.33-1.64-1.07-1.71-2.19-.07-1.11.14-2.15.65-3.14.12-.23.21-.46.34-.78-.24.02-.4,0-.56.05-1.05.3-2.09.64-3.15.89-.89.21-1.81.38-2.72.47-.86.09-1.69-.19-2.5-.46-1.57-.52-3.13-1.09-4.73-1.53-3.6-.98-7.02-.44-10.28,1.34-.61.33-.98.66-.87,1.42.07.5-.29.82-.78.99.23.26.44.48.64.71-.35.56-.88.89-1.38,1.2.37.27.73.54,1.09.8.18.13.22.3.22.51,0,7.3,0,14.6,0,21.91,0,13.87,0,27.74,0,41.6,0,.26.1.4.29.56.49.41.96.84,1.4,1.29.31.31.3.51-.01.82-.33.34-.71.64-1.06.95.03.04.06.09.09.13.5.03,1,.06,1.5.08,2.57.09,5.12.31,7.65.79,1.14.21,2.27.51,3.37.86,1.11.35,1.2.55,1.3,1.7.19.04.39.07.59.11.66.14,1.21.47,1.58,1.03.15.22.25.51.26.77.04,1.43.05,2.86.05,4.3,0,.11-.07.25-.15.34-.44.56-1.06.85-1.71,1.09-1.44.53-2.93.78-4.44,1-4.63.67-9.29.79-13.96.71-1.78-.03-3.56-.02-5.34-.12-3.08-.17-6.15-.41-9.17-1.09-.88-.2-1.72-.54-2.57-.84-.2-.07-.39-.21-.56-.33-.39-.28-.62-.6-.6-1.14.04-1.12.03-2.25,0-3.37-.04-1.3.92-2.05,1.92-2.28.55-.13.57-.11.57-.68,0-.36.17-.6.47-.73.57-.26,1.13-.54,1.73-.72,1.61-.49,3.26-.8,4.93-.97,1.99-.2,3.98-.33,5.97-.5.2-.02.39-.04.62-.07-.4-.49-.78-.96-1.21-1.49.58-.61,1.11-1.22,1.69-1.79.24-.24.37-.46.37-.81-.01-20.94-.01-41.88-.04-62.82,0-.63.26-1,.74-1.3.14-.09.29-.17.46-.27-.26-.19-.53-.35-.75-.55-.61-.54-.6-.56-.11-1.19.05-.06.1-.13.16-.21-.06-.05-.1-.1-.16-.13-.48-.21-.66-.61-.62-1.09.05-.57-.21-.87-.69-1.12-1.66-.87-3.37-1.57-5.24-1.8-1.53-.19-3.05-.09-4.57.23-1.6.33-3.12.94-4.66,1.44-.97.32-1.93.67-2.98.7-1.03.03-2.01-.18-2.99-.47-1.01-.29-2.02-.6-3.03-.88-.18-.05-.37-.05-.64-.08.11.25.18.43.27.59.49.89.75,1.83.78,2.85.02.94-.19,1.78-1.03,2.34-.24.16-.52.28-.87.46.29.03.51.06.72.07.51.03.63.14.66.65.03.43.04.85.06,1.28.04,1.65.08,3.3.13,4.95,0,.21.05.41.09.62.08.46.4.68.82.85.11-.09.22-.21.35-.29.15-.1.3-.2.47-.24.59-.15.87.06.91.66.06.83-.26,1.26-1.11,1.46-.13.03-.27.06-.42.09.45,1.35.88,2.67,1.34,3.98,2.82,8.1,5.63,16.21,8.48,24.3,1.73,4.92,3.5,9.82,5.24,14.73.12.34.31.48.64.55.92.18,1.85.37,2.76.6.44.11.48.25.3.68-.36.86-.95,1.56-1.57,2.23-3.02,3.24-6.68,5.44-10.84,6.87-1.97.68-4,1.13-6.06,1.38-2.44.3-4.89.3-7.33.05-4.96-.51-9.48-2.21-13.42-5.32-1.53-1.2-2.9-2.58-4.02-4.18-.24-.35-.4-.75-.58-1.13-.12-.27-.02-.52.24-.62.6-.24,1.2-.45,1.82-.65.33-.11.76-.07.98-.28.23-.21.28-.64.4-.97,2.13-5.99,4.27-11.97,6.38-17.97,2.41-6.86,4.78-13.73,7.17-20.59.4-1.14.77-2.3,1.17-3.44.08-.23.04-.34-.2-.36-.04,0-.08-.02-.12-.03-.96-.22-1.31-.97-.87-1.87.11-.23.29-.33.54-.23.23.09.46.2.68.3.58.25,1.01.08,1.17-.54.13-.53.23-1.07.26-1.61.09-1.58.14-3.16.21-4.74,0-.02,0-.04,0-.06.01-.96.08-1.03.92-1.12.06,0,.11-.03.21-.07-1-.6-1.41-1.6-1.9-2.57.41-.47.94-.71,1.55-.77.09,0,.21.1.29.18.19.2.35.44.55.62.32.29.72.15.82-.28.12-.5.03-.99-.19-1.45-.32-.64-.86-1.09-1.43-1.49-.2-.14-.36-.11-.49.11-.09.17-.2.32-.29.48-.11.19-.27.24-.45.12-.76-.47-1.31-1.12-1.6-1.97-.04-.12.02-.33.11-.44.42-.54.96-.91,1.58-1.18.19-.08.35-.03.45.16.06.1.12.2.23.37.13-.16.23-.3.36-.42.6-.57,1.31-.92,2.14-.88.39.02.78.2,1.14.37.64.3,1.25.65,1.88.96.96.47,1.97.7,3.03.54.45-.07.91-.23,1.32-.44,1.34-.69,2.66-1.43,4-2.13,3.74-1.99,7.6-1.96,11.52-.6.4.14.8.31,1.19.48.38.17.75.35,1.17.55.02-.13.04-.25.04-.36,0-.54,0-1.07.02-1.61,0-.15.07-.35.18-.43.44-.33.63-.74.53-1.28,0-.03,0-.06,0-.09.08-.36-.08-.57-.42-.68-.18-.06-.34-.17-.49-.28-.26-.19-.27-.4.02-.56.29-.16.62-.25.93-.38.14-.06.37-.1.39-.19.06-.26.12-.56-.1-.79-.14-.15-.3-.29-.45-.43-1.18-1.09-1.17-2.85-.02-3.98,1.46-1.43,3.21-.84,4.12.24,1.06,1.24.8,3.01-.56,4.04-.29.22-.41.61-.26.94.03.06.13.1.21.13.37.14.76.24,1.11.41.36.17.36.43.02.64-.18.11-.37.19-.56.27-.17.06-.27.16-.27.35,0,.37,0,.74.03,1.1,0,.08.08.18.15.22.3.17.43.43.44.76,0,.53,0,1.05.02,1.58,0,.13.02.25.03.37.76-.32,1.5-.65,2.25-.93,2.3-.87,4.67-1.21,7.12-.94,1.65.18,3.16.75,4.62,1.51,1.32.69,2.64,1.38,3.95,2.09,1.14.62,2.33.67,3.51.22.83-.31,1.62-.75,2.42-1.13.09-.04.18-.09.26-.14,1.24-.8,2.34-.32,3.34.51.11.09.2.22.33.36.17-.21.31-.38.47-.57.68.29,1.32.63,1.78,1.24.16.22.2.45.09.7-.31.7-.8,1.26-1.44,1.67-.34.22-.46.17-.66-.19,0,0,0-.02-.01-.03-.38-.71-.4-.73-1.01-.18-.59.53-1.19,1.08-1.3,1.94-.03.24-.04.5.01.74.09.42.48.56.82.3.21-.16.37-.38.52-.6.12-.17.26-.29.44-.21.43.17.85.37,1.26.59.07.04.09.28.05.39-.4.85-.72,1.76-1.63,2.25-.02.01-.04.04-.09.12.22.04.4.09.59.11.25.03.38.16.41.4.04.47.08.93.1,1.4.08,1.52.15,3.04.25,4.56.03.39.12.79.23,1.16.18.58.59.73,1.14.5.26-.11.51-.22.77-.31.24-.09.42,0,.48.25.07.29.14.58.14.88,0,.45-.26.75-.76.92-.22.07-.44.11-.69.17.02.09.04.18.07.26,2.29,6.67,4.56,13.34,6.89,20,2.69,7.68,5.43,15.33,8.14,23,.07.2.18.31.39.35.93.19,1.87.37,2.8.58.22.05.42.2.63.3v.24Zm-98.19-1.56c.18,0,.29.01.4,0,.65-.08,1.3-.19,1.95-.24,2.74-.22,5.49-.48,8.24-.63,2.36-.13,4.73-.15,7.1-.2.32,0,.39-.11.39-.41-.02-3.89-.03-7.78-.04-11.67-.02-8.43-.05-16.87-.07-25.3,0-1.19-.04-2.39-.06-3.58,0-.16.02-.32-.21-.36-.38-.05-.52-.32-.57-.67-.1-.66.02-1.31.17-1.95.02-.07.08-.13.12-.2.07-.14.2-.29.21-.43.03-.77.03-1.55.04-2.32,0-.1-.04-.21-.08-.41-.14.15-.24.23-.29.33-.07.15-.13.32-.15.48-.09.74-.19,1.48-.24,2.22-.07,1.01-.47,1.75-1.48,2.08-.24.08-.36.24-.44.48-.68,2.01-1.36,4.03-2.05,6.03-1.79,5.15-3.57,10.3-5.38,15.44-2.27,6.45-4.58,12.89-6.87,19.34-.23.64-.44,1.29-.68,1.98Zm94.12.35c-.08-.21-.15-.41-.22-.61-2.67-7.53-5.37-15.05-8.01-22.6-2.35-6.7-4.64-13.42-6.95-20.13-.06-.16-.12-.26-.31-.31-.81-.19-1.34-.79-1.44-1.62-.05-.39-.07-.79-.12-1.19-.07-.57-.14-1.14-.23-1.71-.03-.22-.14-.41-.45-.47-.02.19-.06.36-.06.53.01.62.03,1.23.06,1.85.02.28-.01.58.31.75.06.03.1.15.11.24.05.64.12,1.28.13,1.92,0,.27-.15.52-.45.56-.33.04-.37.24-.37.49,0,.13,0,.26,0,.39-.01,2.72-.03,5.43-.04,8.15-.02,6.89-.04,13.79-.06,20.68-.01,3.76-.03,7.52-.04,11.28,0,.11,0,.21,0,.34,6.05.25,12.06.63,18.03,1.47.03,0,.06,0,.11-.01Zm-18.46-1.44v-41.44c-.62-.05-.62-.05-.64-.71-.01-.46-.03-.92.02-1.37.03-.34.21-.67.23-1,.05-.71.05-1.43.05-2.14,0-.16-.09-.33-.13-.49-.04,0-.08-.01-.12-.02-.09.15-.22.3-.26.46-.1.43-.18.87-.24,1.32-.11.72-.18,1.44-.31,2.15-.09.48-.38.88-.86,1.03-.4.12-.56.39-.68.74-.66,1.93-1.32,3.87-1.99,5.8-2.73,7.79-5.45,15.57-8.19,23.35-1.52,4.32-3.05,8.63-4.58,12.94-.05.15-.09.31-.16.54,5.95-.94,11.9-1,17.89-1.16ZM22.41,32.7c.06,13.82-.02,27.64.14,41.48,5.98.15,11.9.7,17.86,1.43-.06-.18-.09-.28-.13-.38-1.72-4.85-3.47-9.68-5.16-14.54-3.29-9.42-6.55-18.85-9.82-28.27-.07-.19-.15-.31-.35-.38-.62-.24-1.06-.66-1.17-1.35-.07-.44-.11-.89-.18-1.33-.09-.64-.19-1.28-.3-1.91-.04-.2-.14-.39-.44-.45-.03.22-.09.44-.08.64.05.95-.04,1.89.24,2.84.15.5.06,1.09.05,1.63-.02.58-.06.6-.66.59Zm56.8-9.71c.04.3.06.61.11.9.06.3.32.22.51.22.24,0,.53.11.69-.2,0,0,0-.02,0-.03,0-.25,0-.5,0-.76-.64.3-1,.25-1.32-.14Zm-57.59.14c.06.35.11.64.16.93.34,0,.74.12,1.01-.02.3-.15.1-.57.11-.89-.41.33-.79.15-1.28-.01Z"/>
  </g>
</svg>